<svg version="1.1" id="svg1867" xmlns="http://www.w3.org/2000/svg" x="0" y="0" viewBox="0 0 1000 199.3" style="enable-background:new 0 0 1000 199.3" xml:space="preserve"><style>.st2{fill:#253165}</style><g id="layer1" transform="translate(0 403)"><g id="g940" transform="matrix(7.47027 0 0 -7.47027 177.428 -69.96)"><path id="path942" d="M.1 35.5-9.3 26c-.7-.7-1.5-1-2.5-1s-1.8.4-2.5 1l-9.5 9.5-.1-8.5 5.3-5.3c1.8-1.8 4.2-2.8 6.7-2.8s4.9 1 6.7 2.8L.1 27v8.5z" style="fill:#78ca35"/></g><g id="g944" transform="matrix(7.47027 0 0 -7.47027 156.498 -90.92)"><path id="path946" d="M-2.3 37.9c-1.8 1.8-4.1 2.7-6.5 2.8-2.5.1-5.1-.9-7-2.8l-5.2-5.2 4.3-4.2 5.2 5.2c.7.7 1.6 1 2.5 1 .9 0 1.8-.3 2.5-1L3 24.2v8.5l-5.3 5.2z" style="fill:#3e6dbe"/></g><g id="g948" transform="matrix(7.47027 0 0 -7.47027 177.428 -35.827)"><path id="path950" class="st2" d="M.1 31.5V40l-4.3-4.3 4.3-4.2z"/></g><g id="g952" transform="matrix(7.47027 0 0 -7.47027 81.715 -36.279)"><path id="path954" class="st2" d="m-10.9 31.6 4.3 4.2-4.3 4.3-.1-.1v-8.4z"/></g><g id="g960" transform="matrix(7.47027 0 0 -7.47027 265.962 -23.454)"><path id="path962" class="st2" d="M10.4 30.1H6.7v1.5c-.9-1.1-2.2-1.9-4.1-1.9-3.8 0-6.7 3.1-6.7 7.3 0 4.1 2.9 7.3 6.7 7.3 1.9 0 3.2-.8 4.1-1.9v1.5h3.6V30.1zM-.3 37c0-2.1 1.4-3.8 3.6-3.8 2.1 0 3.6 1.6 3.6 3.8s-1.4 3.8-3.6 3.8S-.3 39.1-.3 37"/></g><g id="g964" transform="matrix(7.47027 0 0 -7.47027 318.35 -72.61)"><path id="path966" class="st2" d="M16.4 35.8v1.5H20V24.7c0-4.4-2.9-7.1-7.5-7.1-2.2 0-4.5.6-6 1.7l1.3 3c1.4-.9 2.9-1.4 4.6-1.4 2.3 0 3.9 1.3 3.9 3.7v1c-.9-1.2-2.3-1.9-4.2-1.9-3.4 0-6.4 2.8-6.4 7s3 7.1 6.4 7.1c2-.1 3.4-.9 4.3-2m-6.8-5.2c0-2 1.4-3.6 3.5-3.6s3.5 1.6 3.5 3.6c0 2.1-1.4 3.6-3.5 3.6-2.1.1-3.5-1.6-3.5-3.6"/></g><g id="g968" transform="matrix(7.47027 0 0 -7.47027 362.864 -96.873)"><path id="path970" class="st2" d="M21.6 38.6c0-1.3-1-2.4-2.4-2.4-1.3 0-2.4 1-2.4 2.4 0 1.3 1 2.4 2.4 2.4 1.3 0 2.4-1.1 2.4-2.4m-.5-18.3h-3.7v13.8h3.7V20.3z"/></g><g id="g972" transform="matrix(7.47027 0 0 -7.47027 428.769 -50.06)"><path id="path974" class="st2" d="M29.2 33.2c0-3.9-2.9-6.8-6.8-6.8-2.5 0-4.6 1.3-5.7 3.2v-3.1h-1V47h1V36.7c1.1 2 3.1 3.3 5.7 3.3 3.9 0 6.8-2.9 6.8-6.8m-12.5 0c0-3.3 2.4-5.9 5.7-5.9 3.3 0 5.7 2.5 5.7 5.9 0 3.3-2.4 5.9-5.7 5.9-3.3-.1-5.7-2.6-5.7-5.9"/></g><g id="g976" transform="matrix(7.47027 0 0 -7.47027 492.376 -23.454)"><path id="path978" class="st2" d="M36.5 30.1h-1v3.1c-1.1-2-3.1-3.3-5.7-3.3-3.8 0-6.7 2.9-6.7 6.8s2.9 6.8 6.7 6.8c2.5 0 4.6-1.3 5.7-3.3v3.1h1V30.1zm-12.3 6.6c0-3.3 2.4-5.9 5.7-5.9 3.3 0 5.7 2.5 5.7 5.9 0 3.3-2.4 5.9-5.7 5.9-3.3 0-5.7-2.5-5.7-5.9"/></g><g id="g980" transform="matrix(7.47027 0 0 -7.47027 556.923 -54.685)"><path id="path982" class="st2" d="M44 33.7v-7.8h-1v7.8c0 2.8-1.7 4.7-4.9 4.7-2.9 0-4.9-2.1-4.9-4.8v-7.7h-1v13.3h1v-2.5c.9 1.6 2.7 2.7 5 2.7 3.6 0 5.8-2.2 5.8-5.7"/></g><g id="g984" transform="matrix(7.47027 0 0 -7.47027 577.92 -53.255)"><path id="path986" class="st2" d="M46.4 33.5h2.5l6.2 5.9h1.3l-6.7-6.3 6.8-7h-1.3l-6.4 6.5h-2.5v-6.5h-1v20.5h1V33.5z"/></g></g></svg>